<svg xmlns="http://www.w3.org/2000/svg" width="48" height="48"><g transform="translate(0 -1004.362)"><circle cx="24" cy="1028.362" r="24" fill="#1d67b1"/><path style="line-height:normal;-inkscape-font-specification:Sans;text-indent:0;text-align:start;text-decoration-line:none;text-transform:none;block-progression:tb;marker:none" fill="#154082" d="M25.246 47.955a24 24 0 0 0 .451-.016 24 24 0 0 0 2.383-.289 24 24 0 0 0 2.34-.525 24 24 0 0 0 2.277-.756 24 24 0 0 0 2.19-.98 24 24 0 0 0 2.08-1.194 24 24 0 0 0 1.951-1.394 24 24 0 0 0 1.803-1.584 24 24 0 0 0 1.634-1.756 24 24 0 0 0 1.454-1.91 24 24 0 0 0 1.254-2.045 24 24 0 0 0 1.042-2.16 24 24 0 0 0 .823-2.254 24 24 0 0 0 .593-2.324 24 24 0 0 0 .36-2.372 24 24 0 0 0 .053-1.068L35.316 12.711l-.011-.012v-.002c-.54-.539-1.144-.966-1.737-1.412-.075.024-.126.036-.199.059-.62.192-1.162.343-1.644.46-.4.098-.778.184-1.102.227h-.004c-.208.028-.401.04-.584.043-.07.002-.133-.004-.2-.006-.075-.002-.147-.01-.22-.017L25.74 8.176l-.004-.004V8.17c-.586-.065-1.17-.168-1.76-.168v.002c-.834 0-1.664.106-2.49.234v.002a32.285 32.285 0 0 1-.775 1.422v.002c-.238.408-.46.752-.678 1.04v.001a5.14 5.14 0 0 1-.324.389c-1.186 1.283-2.392.97-5.469.302-.54.418-1.096.805-1.592 1.301v.002c-.31.31-.592.634-.859.967v.002c-.267.333-.52.674-.768 1.018.179.553.326 1.039.438 1.472v.002c.112.432.19.813.232 1.15v.003c.021.168.033.325.036.474v.002c.002.15-.002.29-.018.424v.002c-.016.133-.042.26-.076.38v.003c-.035.12-.079.236-.133.347v.002c-.054.111-.12.218-.193.323v.001c-.075.105-.16.207-.254.31-.57.61-1.512 1.19-2.877 2.08v.001c-.058.392-.102.784-.131 1.178v.004c-.058.787-.058 1.58 0 2.367v.002c.03.394.072.786.13 1.178v.002l3.425 3.423c.001.049.006.095.005.145 0 .25-.017.515-.06.814l-.018.106c-.041.272-.1.572-.166.894-.09.441-.193.917-.314 1.473l-.026.12v.001c.249.344.501.685.768 1.018v.002c.267.333.55.657.86.966v.002l.001.002 12.596 12.596z" color="#000" font-family="Sans" font-weight="400" transform="translate(0 1004.362)"/><path style="line-height:normal;-inkscape-font-specification:Sans;text-indent:0;text-align:start;text-decoration-line:none;text-transform:none;block-progression:tb;marker:none" fill="#fff" d="M15.977.006v.002c-.835 0-1.665.106-2.49.234-2.253 4.351-2.772 4.13-7.247 3.158-.54.418-1.096.805-1.592 1.301-.62.62-1.13 1.3-1.627 1.988 1.428 4.428.795 4.606-2.845 6.975a16.054 16.054 0 0 0 0 4.73c4.128 2.135 3.763 2.737 2.845 6.977.498.689 1.007 1.368 1.627 1.988.495.495 1.045.883 1.584 1.3 4.622-1.52 4.777-.643 7.248 3.16 1.414.22 2.843.224 4.264.066 2.362-4.602 3.104-4.112 7.824-3.115.593-.447 1.197-.871 1.737-1.41.416-.416.73-.888 1.091-1.337-1.6-5.626-1.27-5.07 3.417-8.093.075-.633.187-1.263.187-1.899 0-.634-.113-1.262-.188-1.892-5.005-2.77-4.557-2.838-3.416-8.102-.36-.448-.675-.92-1.091-1.336-.54-.539-1.144-.966-1.737-1.412-4.969 1.558-5.195.975-7.832-3.115-.586-.065-1.17-.168-1.76-.168zm.025 6.146a9.846 9.846 0 0 1 9.844 9.846 9.846 9.846 0 0 1-9.844 9.846 9.846 9.846 0 0 1-9.846-9.846 9.846 9.846 0 0 1 9.846-9.846zm-3.809 2.08a.416.416 0 0 0-.3.395v2.832c0 .56.293 1.055.742 1.346v2.16c.09 1.287.586 2.185 1.277 2.738-.08.638-.355 1.007-.812 1.346-.541.4-1.328.713-2.159 1.068-.687.294-1.402.647-2.015 1.182a8.808 8.808 0 0 0 6.263 3.504l.6-3.287c.117-.36-.142-.544-.16-.565a1.05 1.05 0 0 1-.37-.797 1.09 1.09 0 0 1 2.178 0c0 .297-.122.596-.33.797 0 0-.27.13-.154.565l.57 3.19a8.814 8.814 0 0 0 5.762-3.686c-.485-.313-1.003-.552-1.506-.764-.82-.347-1.601-.655-2.134-1.067-.524-.404-.825-.871-.836-1.765.72-.597 1.222-1.434 1.253-2.46v-3.62c0-1.297-.982-2.367-2.228-2.367h-4.457c-.255 0-.464-.043-.557-.094-.092-.051-.115-.06-.115-.256.002-.249-.271-.46-.512-.395z" color="#000" font-family="Sans" font-weight="400" overflow="visible" transform="translate(8 1012.362)"/></g></svg>